# Blender 5.2.2 LTS
# www.blender.org
mtllib Minecraft_Cat.mtl
o Object_2
v -5.330800 -0.817034 2.485797
v -0.124024 -3.346567 0.907524
v -4.481639 0.991166 2.389167
v 0.725137 -1.538367 0.810894
v -4.998016 1.130679 0.462021
v 0.208760 -1.398854 -1.116252
v -5.847177 -0.677521 0.558651
v -0.640401 -3.207055 -1.019622
v -4.998016 1.130679 0.462021
v -5.847177 -0.677521 0.558651
v -4.481639 0.991166 2.389167
v -5.330800 -0.817034 2.485797
v -0.640401 -3.207055 -1.019622
v 0.208760 -1.398854 -1.116252
v -0.124024 -3.346567 0.907524
v 0.725137 -1.538367 0.810894
v -5.847177 -0.677521 0.558651
v -0.640401 -3.207055 -1.019622
v -5.330800 -0.817034 2.485797
v -0.124024 -3.346567 0.907524
v -4.481639 0.991166 2.389167
v 0.725137 -1.538367 0.810894
v -4.998016 1.130679 0.462021
v 0.208760 -1.398854 -1.116252
v -5.220615 -0.315960 1.000000
v 0.417541 1.736161 1.000000
v -5.904655 1.563426 1.000000
v -0.266499 3.615547 1.000000
v -5.904655 1.563426 -1.000000
v -0.266499 3.615547 -1.000001
v -5.220615 -0.315960 -1.000000
v 0.417541 1.736161 -1.000000
v -5.904655 1.563426 -1.000000
v -5.220615 -0.315960 -1.000000
v -5.904655 1.563426 1.000000
v -5.220615 -0.315960 1.000000
v 0.417541 1.736161 -1.000000
v -0.266499 3.615547 -1.000001
v 0.417541 1.736161 1.000000
v -0.266499 3.615547 1.000000
v -5.220615 -0.315960 -1.000000
v 0.417541 1.736161 -1.000000
v -5.220615 -0.315960 1.000000
v 0.417541 1.736161 1.000000
v -5.904655 1.563426 1.000000
v -0.266499 3.615547 1.000000
v -5.904655 1.563426 -1.000000
v -0.266499 3.615547 -1.000001
v -10.000000 14.000002 2.999999
v -10.000000 -2.000000 3.000001
v -4.000000 14.000002 2.999999
v -4.000000 -2.000000 3.000001
v -4.000000 14.000002 -1.000002
v -4.000000 -2.000000 -1.000000
v -10.000000 14.000002 -1.000002
v -10.000000 -2.000000 -1.000000
v -4.000000 14.000002 -1.000002
v -10.000000 14.000002 -1.000002
v -4.000000 14.000002 2.999999
v -10.000000 14.000002 2.999999
v -10.000000 -2.000000 -1.000000
v -4.000000 -2.000000 -1.000000
v -10.000000 -2.000000 3.000001
v -4.000000 -2.000000 3.000001
v -10.000000 14.000002 -1.000002
v -10.000000 -2.000000 -1.000000
v -10.000000 14.000002 2.999999
v -10.000000 -2.000000 3.000001
v -4.000000 14.000002 2.999999
v -4.000000 -2.000000 3.000001
v -4.000000 14.000002 -1.000002
v -4.000000 -2.000000 -1.000000
v -8.733782 10.994885 0.999999
v 0.329296 15.221069 0.999998
v -9.579019 12.807502 0.999998
v -0.515941 17.033686 0.999998
v -9.579019 12.807502 -1.000002
v -0.515941 17.033686 -1.000002
v -8.733782 10.994885 -1.000002
v 0.329296 15.221069 -1.000002
v -9.579019 12.807502 -1.000002
v -8.733782 10.994885 -1.000002
v -9.579019 12.807502 0.999998
v -8.733782 10.994885 0.999999
v 0.329296 15.221069 -1.000002
v -0.515941 17.033686 -1.000002
v 0.329296 15.221069 0.999998
v -0.515941 17.033686 0.999998
v -8.733782 10.994885 -1.000002
v 0.329296 15.221069 -1.000002
v -8.733782 10.994885 0.999999
v 0.329296 15.221069 0.999998
v -9.579019 12.807502 0.999998
v -0.515941 17.033686 0.999998
v -9.579019 12.807502 -1.000002
v -0.515941 17.033686 -1.000002
v -7.893067 12.205064 0.899998
v -4.472866 21.601990 0.899997
v -9.772452 12.889104 0.899998
v -6.352251 22.286030 0.899997
v -9.772452 12.889104 -1.100002
v -6.352251 22.286030 -1.100003
v -7.893067 12.205064 -1.100002
v -4.472866 21.601990 -1.100003
v -9.772452 12.889104 -1.100002
v -7.893067 12.205064 -1.100002
v -9.772452 12.889104 0.899998
v -7.893067 12.205064 0.899998
v -4.472866 21.601990 -1.100003
v -6.352251 22.286030 -1.100003
v -4.472866 21.601990 0.899997
v -6.352251 22.286030 0.899997
v -7.893067 12.205064 -1.100002
v -4.472866 21.601990 -1.100003
v -7.893067 12.205064 0.899998
v -4.472866 21.601990 0.899997
v -9.772452 12.889104 0.899998
v -6.352251 22.286030 0.899997
v -9.772452 12.889104 -1.100002
v -6.352251 22.286030 -1.100003
v -9.892483 13.584587 3.598738
v -8.857206 13.584586 -0.264966
v -5.227419 14.878682 4.848738
v -4.192143 14.878681 0.985034
v -6.477419 19.708311 4.513801
v -5.442143 19.708311 0.650097
v -11.142483 18.414215 3.263801
v -10.107206 18.414215 -0.599903
v -6.477419 19.708311 4.513801
v -11.142483 18.414215 3.263801
v -5.227419 14.878682 4.848738
v -9.892483 13.584587 3.598738
v -10.107206 18.414215 -0.599903
v -5.442143 19.708311 0.650097
v -8.857206 13.584586 -0.264966
v -4.192143 14.878681 0.985034
v -11.142483 18.414215 3.263801
v -10.107206 18.414215 -0.599903
v -9.892483 13.584587 3.598738
v -8.857206 13.584586 -0.264966
v -5.227419 14.878682 4.848738
v -4.192143 14.878681 0.985034
v -6.477419 19.708311 4.513801
v -5.442143 19.708311 0.650097
v -5.897970 15.585789 2.619217
v -5.380332 15.585789 0.687365
v -4.031945 16.103426 3.119217
v -3.514307 16.103426 1.187365
v -4.781945 19.001204 2.918255
v -4.264307 19.001204 0.986403
v -6.647970 18.483566 2.418255
v -6.130332 18.483566 0.486403
v -4.781945 19.001204 2.918255
v -6.647970 18.483566 2.418255
v -4.031945 16.103426 3.119217
v -5.897970 15.585789 2.619217
v -6.130332 18.483566 0.486403
v -4.264307 19.001204 0.986403
v -5.380332 15.585789 0.687365
v -3.514307 16.103426 1.187365
v -6.647970 18.483566 2.418255
v -6.130332 18.483566 0.486403
v -5.897970 15.585789 2.619217
v -5.380332 15.585789 0.687365
v -4.031945 16.103426 3.119217
v -3.514307 16.103426 1.187365
v -4.781945 19.001204 2.918255
v -4.264307 19.001204 0.986403
v -11.026301 16.965326 4.330208
v -10.767483 16.965326 3.364282
v -9.160276 17.482965 4.830208
v -8.901457 17.482965 3.864282
v -9.410276 18.448891 4.763220
v -9.151457 18.448891 3.797295
v -11.276301 17.931253 4.263220
v -11.017483 17.931253 3.297295
v -9.410276 18.448891 4.763220
v -11.276301 17.931253 4.263220
v -9.160276 17.482965 4.830208
v -11.026301 16.965326 4.330208
v -11.017483 17.931253 3.297295
v -9.151457 18.448891 3.797295
v -10.767483 16.965326 3.364282
v -8.901457 17.482965 3.864282
v -11.276301 17.931253 4.263220
v -11.017483 17.931253 3.297295
v -11.026301 16.965326 4.330208
v -10.767483 16.965326 3.364282
v -9.160276 17.482965 4.830208
v -8.901457 17.482965 3.864282
v -9.410276 18.448891 4.763220
v -9.151457 18.448891 3.797295
v -10.276301 14.067551 4.531170
v -10.017483 14.067551 3.565244
v -8.410276 14.585188 5.031170
v -8.151457 14.585188 4.065244
v -8.660276 15.551114 4.964183
v -8.401457 15.551114 3.998257
v -10.526301 15.033476 4.464183
v -10.267483 15.033475 3.498257
v -8.660276 15.551114 4.964183
v -10.526301 15.033476 4.464183
v -8.410276 14.585188 5.031170
v -10.276301 14.067551 4.531170
v -10.267483 15.033475 3.498257
v -8.401457 15.551114 3.998257
v -10.017483 14.067551 3.565244
v -8.151457 14.585188 4.065244
v -10.526301 15.033476 4.464183
v -10.267483 15.033475 3.498257
v -10.276301 14.067551 4.531170
v -10.017483 14.067551 3.565244
v -8.410276 14.585188 5.031170
v -8.151457 14.585188 4.065244
v -8.660276 15.551114 4.964183
v -8.401457 15.551114 3.998257
v -9.925945 -2.213937 1.522304
v -7.257300 -9.702872 0.631130
v -8.987230 -1.873219 1.470100
v -6.318585 -9.362154 0.578925
v -9.074055 -1.786063 0.477696
v -6.405409 -9.274999 -0.413479
v -10.012770 -2.126782 0.529900
v -7.344124 -9.615717 -0.361274
v -9.074055 -1.786063 0.477696
v -10.012770 -2.126782 0.529900
v -8.987230 -1.873219 1.470100
v -9.925945 -2.213937 1.522304
v -7.344124 -9.615717 -0.361274
v -6.405409 -9.274999 -0.413479
v -7.257300 -9.702872 0.631130
v -6.318585 -9.362154 0.578925
v -10.012770 -2.126782 0.529900
v -7.344124 -9.615717 -0.361274
v -9.925945 -2.213937 1.522304
v -7.257300 -9.702872 0.631130
v -8.987230 -1.873219 1.470100
v -6.318585 -9.362154 0.578925
v -9.074055 -1.786063 0.477696
v -6.405409 -9.274999 -0.413479
v -6.816175 -10.210279 0.500001
v 1.153382 -9.513034 0.500001
v -6.903331 -9.214085 0.500001
v 1.066227 -8.516839 0.500001
v -6.903331 -9.214085 -0.499999
v 1.066227 -8.516839 -0.499999
v -6.816175 -10.210279 -0.499999
v 1.153382 -9.513034 -0.499999
v -6.903331 -9.214085 -0.499999
v -6.816175 -10.210279 -0.499999
v -6.903331 -9.214085 0.500001
v -6.816175 -10.210279 0.500001
v 1.153382 -9.513034 -0.499999
v 1.066227 -8.516839 -0.499999
v 1.153382 -9.513034 0.500001
v 1.066227 -8.516839 0.500001
v -6.816175 -10.210279 -0.499999
v 1.153382 -9.513034 -0.499999
v -6.816175 -10.210279 0.500001
v 1.153382 -9.513034 0.500001
v -6.903331 -9.214085 0.500001
v 1.066227 -8.516839 0.500001
v -6.903331 -9.214085 -0.499999
v 1.066227 -8.516839 -0.499999
vn 0.2582 -0.0698 0.9636
vn -0.2582 0.0698 -0.9636
vn -0.8678 0.4216 0.2630
vn 0.8678 -0.4216 -0.2630
vn -0.4246 -0.9041 0.0483
vn 0.4246 0.9041 -0.0483
vn -0.0000 -0.0000 1.0000
vn -0.0000 -0.0000 -1.0000
vn -0.9397 -0.3420 -0.0000
vn 0.9397 0.3420 -0.0000
vn 0.3420 -0.9397 -0.0000
vn -0.3420 0.9397 -0.0000
vn -0.0000 1.0000 -0.0000
vn -0.0000 -1.0000 -0.0000
vn -1.0000 -0.0000 -0.0000
vn 1.0000 -0.0000 -0.0000
vn -0.9063 -0.4226 -0.0000
vn 0.9063 0.4226 -0.0000
vn 0.4226 -0.9063 -0.0000
vn -0.4226 0.9063 -0.0000
vn -0.3420 -0.9397 -0.0000
vn 0.3420 0.9397 -0.0000
vn 0.9397 -0.3420 -0.0000
vn -0.9397 0.3420 -0.0000
vn 0.2500 -0.9659 0.0670
vn -0.2500 0.9659 -0.0670
vn -0.2588 -0.0000 0.9659
vn 0.2588 -0.0000 -0.9659
vn -0.9330 -0.2588 -0.2500
vn 0.9330 0.2588 0.2500
vn 0.0868 -0.0872 0.9924
vn -0.0868 0.0872 -0.9924
vn -0.3336 0.9361 0.1114
vn 0.3336 -0.9361 -0.1114
vn -0.9387 -0.3407 0.0522
vn 0.9387 0.3407 -0.0522
vn -0.9962 -0.0872 -0.0000
vn 0.9962 0.0872 -0.0000
vn 0.0872 -0.9962 -0.0000
vn -0.0872 0.9962 -0.0000
vt 0.217773 0.470703
vt 0.217773 0.654297
vt 0.188477 0.470703
vt 0.188477 0.654297
vt 0.155273 0.470703
vt 0.155273 0.654297
vt 0.125977 0.470703
vt 0.125977 0.654297
vt 0.157227 0.466797
vt 0.157227 0.408203
vt 0.186523 0.466797
vt 0.186523 0.408203
vt 0.188477 0.408203
vt 0.188477 0.466797
vt 0.217773 0.408203
vt 0.217773 0.466797
vt 0.249023 0.470703
vt 0.249023 0.654297
vt 0.219727 0.470703
vt 0.219727 0.654297
vt 0.186523 0.470703
vt 0.186523 0.654297
vt 0.157227 0.470703
vt 0.157227 0.654297
vt 0.561523 0.189453
vt 0.561523 0.685547
vt 0.469727 0.189453
vt 0.469727 0.685547
vt 0.405273 0.189453
vt 0.405273 0.685547
vt 0.313477 0.189453
vt 0.313477 0.685547
vt 0.407227 0.185547
vt 0.407227 0.001953
vt 0.467773 0.185547
vt 0.467773 0.001953
vt 0.469727 0.001953
vt 0.469727 0.185547
vt 0.530273 0.001953
vt 0.530273 0.185547
vt 0.624023 0.189453
vt 0.624023 0.685547
vt 0.563477 0.189453
vt 0.563477 0.685547
vt 0.467773 0.189453
vt 0.467773 0.685547
vt 0.407227 0.189453
vt 0.407227 0.685547
vt 0.717773 0.064453
vt 0.717773 0.373047
vt 0.688477 0.064453
vt 0.688477 0.373047
vt 0.655273 0.064453
vt 0.655273 0.373047
vt 0.625977 0.064453
vt 0.625977 0.373047
vt 0.657227 0.060547
vt 0.657227 0.001953
vt 0.686523 0.060547
vt 0.686523 0.001953
vt 0.688477 0.001953
vt 0.688477 0.060547
vt 0.717773 0.001953
vt 0.717773 0.060547
vt 0.749023 0.064453
vt 0.749023 0.373047
vt 0.719727 0.064453
vt 0.719727 0.373047
vt 0.686523 0.064453
vt 0.686523 0.373047
vt 0.657227 0.064453
vt 0.657227 0.373047
vt 0.233398 0.158203
vt 0.233398 0.279297
vt 0.157227 0.158203
vt 0.157227 0.279297
vt 0.077148 0.158203
vt 0.077148 0.279297
vt 0.000977 0.158203
vt 0.000977 0.279297
vt 0.079102 0.154297
vt 0.079102 0.001953
vt 0.155273 0.154297
vt 0.155273 0.001953
vt 0.157227 0.001953
vt 0.157227 0.154297
vt 0.233398 0.001953
vt 0.233398 0.154297
vt 0.311523 0.158203
vt 0.311523 0.279297
vt 0.235352 0.158203
vt 0.235352 0.279297
vt 0.155273 0.158203
vt 0.155273 0.279297
vt 0.079102 0.158203
vt 0.079102 0.279297
vt 0.108398 0.814453
vt 0.108398 0.873047
vt 0.079102 0.814453
vt 0.079102 0.873047
vt 0.030273 0.814453
vt 0.030273 0.873047
vt 0.000977 0.814453
vt 0.000977 0.873047
vt 0.032227 0.810547
vt 0.032227 0.751953
vt 0.077148 0.810547
vt 0.077148 0.751953
vt 0.079102 0.751953
vt 0.079102 0.810547
vt 0.124023 0.751953
vt 0.124023 0.810547
vt 0.155273 0.814453
vt 0.155273 0.873047
vt 0.110352 0.814453
vt 0.110352 0.873047
vt 0.077148 0.814453
vt 0.077148 0.873047
vt 0.032227 0.814453
vt 0.032227 0.873047
vt 0.077148 0.376953
vt 0.077148 0.404297
vt 0.047852 0.376953
vt 0.047852 0.404297
vt 0.030273 0.376953
vt 0.030273 0.404297
vt 0.000977 0.376953
vt 0.000977 0.404297
vt 0.032227 0.373047
vt 0.032227 0.314453
vt 0.045898 0.373047
vt 0.045898 0.314453
vt 0.047852 0.314453
vt 0.047852 0.373047
vt 0.061523 0.314453
vt 0.061523 0.373047
vt 0.092773 0.376953
vt 0.092773 0.404297
vt 0.079102 0.376953
vt 0.079102 0.404297
vt 0.045898 0.376953
vt 0.045898 0.404297
vt 0.032227 0.376953
vt 0.032227 0.404297
vt 0.170898 0.376953
vt 0.170898 0.404297
vt 0.141602 0.376953
vt 0.141602 0.404297
vt 0.124023 0.376953
vt 0.124023 0.404297
vt 0.094727 0.376953
vt 0.094727 0.404297
vt 0.125977 0.373047
vt 0.125977 0.314453
vt 0.139648 0.373047
vt 0.139648 0.314453
vt 0.141602 0.314453
vt 0.141602 0.373047
vt 0.155273 0.314453
vt 0.155273 0.373047
vt 0.186523 0.376953
vt 0.186523 0.404297
vt 0.172852 0.376953
vt 0.172852 0.404297
vt 0.139648 0.376953
vt 0.139648 0.404297
vt 0.125977 0.376953
vt 0.125977 0.404297
vt 0.045898 0.501953
vt 0.045898 0.748047
vt 0.032227 0.501953
vt 0.032227 0.748047
vt 0.014648 0.501953
vt 0.014648 0.748047
vt 0.000977 0.501953
vt 0.000977 0.748047
vt 0.016602 0.498047
vt 0.016602 0.470703
vt 0.030273 0.498047
vt 0.030273 0.470703
vt 0.032227 0.470703
vt 0.032227 0.498047
vt 0.045898 0.470703
vt 0.045898 0.498047
vt 0.061523 0.501953
vt 0.061523 0.748047
vt 0.047852 0.501953
vt 0.047852 0.748047
vt 0.030273 0.501953
vt 0.030273 0.748047
vt 0.016602 0.501953
vt 0.016602 0.748047
vt 0.108398 0.501953
vt 0.108398 0.748047
vt 0.094727 0.501953
vt 0.094727 0.748047
vt 0.077148 0.501953
vt 0.077148 0.748047
vt 0.063477 0.501953
vt 0.063477 0.748047
vt 0.079102 0.498047
vt 0.079102 0.470703
vt 0.092773 0.498047
vt 0.092773 0.470703
vt 0.094727 0.470703
vt 0.094727 0.498047
vt 0.108398 0.470703
vt 0.108398 0.498047
vt 0.124023 0.501953
vt 0.124023 0.748047
vt 0.110352 0.501953
vt 0.110352 0.748047
vt 0.092773 0.501953
vt 0.092773 0.748047
vt 0.079102 0.501953
vt 0.079102 0.748047
s 0
usemtl material
f 1/1/1 2/2/1 3/3/1
f 2/2/1 4/4/1 3/3/1
f 5/5/2 6/6/2 7/7/2
f 6/6/2 8/8/2 7/7/2
f 9/9/3 10/10/3 11/11/3
f 10/10/3 12/12/3 11/11/3
f 13/13/4 14/14/4 15/15/4
f 14/14/4 16/16/4 15/15/4
f 17/17/5 18/18/5 19/19/5
f 18/18/5 20/20/5 19/19/5
f 21/21/6 22/22/6 23/23/6
f 22/22/6 24/24/6 23/23/6
f 25/1/7 26/2/7 27/3/7
f 26/2/7 28/4/7 27/3/7
f 29/5/8 30/6/8 31/7/8
f 30/6/8 32/8/8 31/7/8
f 33/9/9 34/10/9 35/11/9
f 34/10/9 36/12/9 35/11/9
f 37/13/10 38/14/10 39/15/10
f 38/14/10 40/16/10 39/15/10
f 41/17/11 42/18/11 43/19/11
f 42/18/11 44/20/11 43/19/11
f 45/21/12 46/22/12 47/23/12
f 46/22/12 48/24/12 47/23/12
f 49/25/7 50/26/7 51/27/7
f 50/26/7 52/28/7 51/27/7
f 53/29/8 54/30/8 55/31/8
f 54/30/8 56/32/8 55/31/8
f 57/33/13 58/34/13 59/35/13
f 58/34/13 60/36/13 59/35/13
f 61/37/14 62/38/14 63/39/14
f 62/38/14 64/40/14 63/39/14
f 65/41/15 66/42/15 67/43/15
f 66/42/15 68/44/15 67/43/15
f 69/45/16 70/46/16 71/47/16
f 70/46/16 72/48/16 71/47/16
f 73/49/7 74/50/7 75/51/7
f 74/50/7 76/52/7 75/51/7
f 77/53/8 78/54/8 79/55/8
f 78/54/8 80/56/8 79/55/8
f 81/57/17 82/58/17 83/59/17
f 82/58/17 84/60/17 83/59/17
f 85/61/18 86/62/18 87/63/18
f 86/62/18 88/64/18 87/63/18
f 89/65/19 90/66/19 91/67/19
f 90/66/19 92/68/19 91/67/19
f 93/69/20 94/70/20 95/71/20
f 94/70/20 96/72/20 95/71/20
f 97/49/7 98/50/7 99/51/7
f 98/50/7 100/52/7 99/51/7
f 101/53/8 102/54/8 103/55/8
f 102/54/8 104/56/8 103/55/8
f 105/57/21 106/58/21 107/59/21
f 106/58/21 108/60/21 107/59/21
f 109/61/22 110/62/22 111/63/22
f 110/62/22 112/64/22 111/63/22
f 113/65/23 114/66/23 115/67/23
f 114/66/23 116/68/23 115/67/23
f 117/69/24 118/70/24 119/71/24
f 118/70/24 120/72/24 119/71/24
f 121/73/25 122/74/25 123/75/25
f 122/74/25 124/76/25 123/75/25
f 125/77/26 126/78/26 127/79/26
f 126/78/26 128/80/26 127/79/26
f 129/81/27 130/82/27 131/83/27
f 130/82/27 132/84/27 131/83/27
f 133/85/28 134/86/28 135/87/28
f 134/86/28 136/88/28 135/87/28
f 137/89/29 138/90/29 139/91/29
f 138/90/29 140/92/29 139/91/29
f 141/93/30 142/94/30 143/95/30
f 142/94/30 144/96/30 143/95/30
f 145/97/25 146/98/25 147/99/25
f 146/98/25 148/100/25 147/99/25
f 149/101/26 150/102/26 151/103/26
f 150/102/26 152/104/26 151/103/26
f 153/105/27 154/106/27 155/107/27
f 154/106/27 156/108/27 155/107/27
f 157/109/28 158/110/28 159/111/28
f 158/110/28 160/112/28 159/111/28
f 161/113/29 162/114/29 163/115/29
f 162/114/29 164/116/29 163/115/29
f 165/117/30 166/118/30 167/119/30
f 166/118/30 168/120/30 167/119/30
f 169/121/25 170/122/25 171/123/25
f 170/122/25 172/124/25 171/123/25
f 173/125/26 174/126/26 175/127/26
f 174/126/26 176/128/26 175/127/26
f 177/129/27 178/130/27 179/131/27
f 178/130/27 180/132/27 179/131/27
f 181/133/28 182/134/28 183/135/28
f 182/134/28 184/136/28 183/135/28
f 185/137/29 186/138/29 187/139/29
f 186/138/29 188/140/29 187/139/29
f 189/141/30 190/142/30 191/143/30
f 190/142/30 192/144/30 191/143/30
f 193/145/25 194/146/25 195/147/25
f 194/146/25 196/148/25 195/147/25
f 197/149/26 198/150/26 199/151/26
f 198/150/26 200/152/26 199/151/26
f 201/153/27 202/154/27 203/155/27
f 202/154/27 204/156/27 203/155/27
f 205/157/28 206/158/28 207/159/28
f 206/158/28 208/160/28 207/159/28
f 209/161/29 210/162/29 211/163/29
f 210/162/29 212/164/29 211/163/29
f 213/165/30 214/166/30 215/167/30
f 214/166/30 216/168/30 215/167/30
f 217/169/31 218/170/31 219/171/31
f 218/170/31 220/172/31 219/171/31
f 221/173/32 222/174/32 223/175/32
f 222/174/32 224/176/32 223/175/32
f 225/177/33 226/178/33 227/179/33
f 226/178/33 228/180/33 227/179/33
f 229/181/34 230/182/34 231/183/34
f 230/182/34 232/184/34 231/183/34
f 233/185/35 234/186/35 235/187/35
f 234/186/35 236/188/35 235/187/35
f 237/189/36 238/190/36 239/191/36
f 238/190/36 240/192/36 239/191/36
f 241/193/7 242/194/7 243/195/7
f 242/194/7 244/196/7 243/195/7
f 245/197/8 246/198/8 247/199/8
f 246/198/8 248/200/8 247/199/8
f 249/201/37 250/202/37 251/203/37
f 250/202/37 252/204/37 251/203/37
f 253/205/38 254/206/38 255/207/38
f 254/206/38 256/208/38 255/207/38
f 257/209/39 258/210/39 259/211/39
f 258/210/39 260/212/39 259/211/39
f 261/213/40 262/214/40 263/215/40
f 262/214/40 264/216/40 263/215/40
