# Blender 5.2.2 LTS
# www.blender.org
mtllib McCat.mtl
o polySurface1_lambert3_0
v 0.114837 0.009462 -0.020857
v 0.171046 0.008628 -0.011575
v -0.005296 0.000000 0.000000
v 0.037503 0.009030 -0.026008
v -0.048095 0.009030 -0.026008
v -0.125149 0.011079 -0.020857
v -0.177876 0.013968 -0.011575
v -0.196675 0.015083 0.000000
v -0.177700 0.014762 0.011575
v -0.196675 0.015083 0.000000
v -0.005296 0.000000 0.000000
v -0.125054 0.011508 0.020857
v -0.048095 0.009030 0.026008
v 0.037503 0.009030 0.026008
v 0.115208 0.009218 0.020857
v 0.171820 0.008568 0.011575
v 0.191280 0.008706 0.000000
v 0.191280 0.008706 0.000000
v 0.028264 0.511187 -0.011132
v 0.017928 0.511187 -0.020059
v -0.005296 0.514078 0.000000
v 0.002993 0.511187 -0.025013
v -0.013585 0.511187 -0.025013
v -0.028521 0.511187 -0.020059
v -0.038856 0.511187 -0.011132
v -0.042545 0.511187 0.000000
v -0.042545 0.511187 0.000000
v -0.038856 0.511187 0.011132
v -0.005296 0.514078 0.000000
v -0.038856 0.511187 0.011132
v -0.028521 0.511187 0.020059
v -0.005296 0.514078 0.000000
v -0.013585 0.511187 0.025013
v 0.002993 0.511187 0.025013
v 0.017928 0.511187 0.020059
v 0.028264 0.511187 0.011132
v 0.028264 0.511187 0.011132
v 0.031953 0.511187 0.000000
v -0.005296 0.514078 0.000000
v 0.031953 0.511187 0.000000
v 0.122318 0.515186 -0.009094
v 0.157971 0.538592 0.008788
v 0.142424 0.501634 -0.009312
v 0.142424 0.501634 -0.009312
v 0.157971 0.538592 0.008788
v 0.152661 0.494734 0.008788
v 0.152661 0.494734 0.008788
v 0.157971 0.538592 0.008788
v 0.142424 0.501634 0.026887
v 0.142424 0.501634 0.026887
v 0.157971 0.538592 0.008788
v 0.122318 0.515186 0.026669
v 0.122318 0.515186 0.026669
v 0.157971 0.538592 0.008788
v 0.112446 0.521840 0.008788
v 0.112446 0.521840 0.008788
v 0.157971 0.538592 0.008788
v 0.122318 0.515186 -0.009094
v -0.118835 0.524834 -0.011660
v -0.139566 0.512317 -0.011878
v -0.153257 0.550000 0.006222
v -0.139566 0.512317 -0.011878
v -0.150121 0.505943 0.006222
v -0.153257 0.550000 0.006222
v -0.150121 0.505943 0.006222
v -0.139566 0.512317 0.024321
v -0.153257 0.550000 0.006222
v -0.139566 0.512317 0.024321
v -0.118835 0.524834 0.024103
v -0.153257 0.550000 0.006222
v -0.118835 0.524834 0.024103
v -0.108655 0.530980 0.006222
v -0.153257 0.550000 0.006222
v -0.108655 0.530980 0.006222
v -0.118835 0.524834 -0.011660
v -0.153257 0.550000 0.006222
v 0.137761 0.046642 -0.039498
v 0.204767 0.046899 -0.021920
v 0.046394 0.047281 -0.049254
v -0.054076 0.047245 -0.049254
v -0.144409 0.048340 -0.039498
v -0.206081 0.052704 -0.021920
v -0.228199 0.053780 0.000000
v -0.205843 0.053780 0.021920
v -0.228199 0.053780 0.000000
v -0.144005 0.050158 0.039498
v -0.054076 0.047245 0.049254
v 0.046394 0.047281 0.049254
v 0.139437 0.046522 0.039498
v 0.205843 0.047286 0.021920
v 0.228200 0.047601 0.000000
v 0.228200 0.047601 0.000000
v 0.127971 0.089871 -0.056759
v 0.190346 0.090784 -0.031499
v 0.043795 0.089749 -0.070778
v -0.049210 0.089749 -0.070778
v -0.132921 0.090131 -0.056759
v -0.189933 0.094519 -0.031499
v -0.210292 0.096035 0.000000
v -0.189596 0.096035 0.031499
v -0.210292 0.096035 0.000000
v -0.132413 0.092414 0.056759
v -0.049211 0.089749 0.070778
v 0.043795 0.089749 0.070778
v 0.130254 0.090486 0.056759
v 0.191863 0.091273 0.031499
v 0.212558 0.091190 0.000000
v 0.212558 0.091190 0.000000
v 0.126011 0.193572 -0.071174
v 0.184448 0.193572 -0.039498
v 0.041567 0.193572 -0.088752
v -0.052159 0.193572 -0.088752
v -0.136603 0.193572 -0.071174
v -0.195037 0.193583 -0.039498
v -0.215863 0.193723 -0.000000
v -0.195008 0.193715 0.039498
v -0.215863 0.193723 -0.000000
v -0.136603 0.193572 0.071174
v -0.052159 0.193572 0.088752
v 0.041567 0.193572 0.088752
v 0.126011 0.193572 0.071174
v 0.184592 0.193621 0.039498
v 0.205456 0.193623 0.000000
v 0.205456 0.193623 0.000000
v 0.121192 0.273470 -0.082019
v 0.176209 0.273550 -0.045517
v 0.041058 0.273405 -0.102277
v -0.048199 0.273405 -0.102277
v -0.128333 0.273470 -0.082019
v -0.183350 0.273550 -0.045517
v -0.202862 0.273585 -0.000000
v -0.183350 0.273550 0.045517
v -0.202862 0.273585 -0.000000
v -0.128334 0.273470 0.082019
v -0.048200 0.273405 0.102277
v 0.041058 0.273405 0.102277
v 0.121192 0.273470 0.082019
v 0.176209 0.273550 0.045517
v 0.195721 0.273585 0.000000
v 0.195721 0.273585 0.000000
v 0.157846 0.330015 -0.045517
v 0.107921 0.329876 -0.082019
v 0.110051 0.357361 -0.088752
v 0.160419 0.357630 -0.049254
v 0.035203 0.329764 -0.102277
v 0.036068 0.357139 -0.110672
v -0.045795 0.329764 -0.102277
v -0.046660 0.357139 -0.110672
v -0.118513 0.329876 -0.082019
v -0.120643 0.357361 -0.088752
v -0.168438 0.330015 -0.045517
v -0.171011 0.357630 -0.049254
v -0.186145 0.330076 -0.000000
v -0.188760 0.357746 -0.000000
v -0.186145 0.330076 -0.000000
v -0.168438 0.330015 0.045517
v -0.171011 0.357630 0.049254
v -0.188760 0.357746 -0.000000
v -0.118513 0.329876 0.082019
v -0.120643 0.357361 0.088752
v -0.045795 0.329764 0.102277
v -0.046660 0.357139 0.110672
v 0.035203 0.329764 0.102277
v 0.036068 0.357139 0.110672
v 0.107921 0.329876 0.082019
v 0.110051 0.357361 0.088752
v 0.157846 0.330015 0.045517
v 0.160419 0.357630 0.049254
v 0.175553 0.330076 0.000000
v 0.178168 0.357746 0.000000
v 0.175553 0.330076 0.000000
v 0.178168 0.357746 0.000000
v 0.105303 0.386416 -0.090926
v 0.153866 0.386437 -0.050461
v 0.034308 0.386454 -0.113382
v -0.044900 0.386454 -0.113382
v -0.115895 0.386416 -0.090926
v -0.164458 0.386437 -0.050461
v -0.181630 0.386469 -0.000000
v -0.164458 0.386437 0.050461
v -0.181630 0.386469 -0.000000
v -0.115895 0.386416 0.090926
v -0.044900 0.386454 0.113382
v 0.034308 0.386454 0.113382
v 0.105303 0.386416 0.090926
v 0.153866 0.386437 0.050461
v 0.171038 0.386469 0.000000
v 0.171038 0.386469 0.000000
v 0.097570 0.415902 -0.088366
v 0.143282 0.415385 -0.049043
v 0.031428 0.416382 -0.110183
v -0.042020 0.416382 -0.110183
v -0.108161 0.415902 -0.088366
v -0.153874 0.415385 -0.049043
v -0.170170 0.415182 -0.000000
v -0.153874 0.415385 0.049043
v -0.170170 0.415182 -0.000000
v -0.108161 0.415902 0.088366
v -0.042020 0.416382 0.110183
v 0.031428 0.416382 0.110183
v 0.097569 0.415902 0.088366
v 0.143282 0.415385 0.049043
v 0.159578 0.415182 0.000000
v 0.159578 0.415182 0.000000
v 0.088914 0.443801 -0.081369
v 0.130848 0.443172 -0.045158
v 0.028326 0.444338 -0.101462
v -0.038918 0.444338 -0.101462
v -0.099506 0.443801 -0.081369
v -0.141440 0.443172 -0.045159
v -0.156407 0.442906 -0.000000
v -0.141440 0.443172 0.045159
v -0.156407 0.442906 -0.000000
v -0.099506 0.443801 0.081369
v -0.038918 0.444338 0.101462
v 0.028326 0.444338 0.101462
v 0.088914 0.443801 0.081369
v 0.130848 0.443172 0.045159
v 0.145815 0.442906 0.000000
v 0.145815 0.442906 0.000000
v 0.076308 0.469079 -0.070481
v 0.112623 0.468788 -0.039113
v 0.023828 0.469316 -0.087889
v -0.034420 0.469316 -0.087889
v -0.086899 0.469079 -0.070481
v -0.123215 0.468788 -0.039113
v -0.136176 0.468661 -0.000000
v -0.123215 0.468788 0.039113
v -0.136176 0.468661 -0.000000
v -0.086899 0.469079 0.070481
v -0.034420 0.469316 0.087889
v 0.023828 0.469316 0.087889
v 0.076308 0.469079 0.070481
v 0.112623 0.468788 0.039113
v 0.125584 0.468661 0.000000
v 0.125584 0.468661 0.000000
v 0.059778 0.488923 -0.056204
v 0.088738 0.488923 -0.031191
v 0.017928 0.488923 -0.070085
v -0.028521 0.488923 -0.070085
v -0.070370 0.488923 -0.056204
v -0.099330 0.488923 -0.031191
v -0.109666 0.488923 0.000000
v -0.099330 0.488923 0.031191
v -0.109666 0.488923 0.000000
v -0.070370 0.488923 0.056204
v -0.028521 0.488923 0.070085
v 0.017928 0.488923 0.070085
v 0.059778 0.488923 0.056204
v 0.088738 0.488923 0.031191
v 0.099074 0.488923 0.000000
v 0.099074 0.488923 0.000000
v 0.039988 0.502660 -0.039112
v 0.060142 0.502660 -0.021706
v 0.010866 0.502660 -0.048772
v -0.021458 0.502660 -0.048772
v -0.050580 0.502660 -0.039112
v -0.070734 0.502660 -0.021706
v -0.077927 0.502660 0.000000
v -0.070734 0.502660 0.021706
v -0.077927 0.502660 0.000000
v -0.050580 0.502660 0.039112
v -0.021458 0.502660 0.048772
v 0.010866 0.502660 0.048772
v 0.039988 0.502660 0.039112
v 0.060142 0.502660 0.021706
v 0.088738 0.488923 0.031191
v 0.099074 0.488923 0.000000
v 0.067334 0.502660 0.000000
v 0.060142 0.502660 0.021706
v 0.067334 0.502660 0.000000
v -0.042545 0.511187 0.000000
v 0.067334 0.502660 0.000000
v 0.031953 0.511187 0.000000
v 0.114139 0.303447 -0.082019
v 0.166450 0.303558 -0.045517
v 0.176209 0.273550 -0.045517
v 0.121192 0.273470 -0.082019
v 0.037947 0.303357 -0.102277
v 0.114139 0.303447 -0.082019
v 0.121192 0.273470 -0.082019
v 0.041058 0.273405 -0.102277
v -0.046921 0.303357 -0.102277
v 0.037947 0.303357 -0.102277
v 0.041058 0.273405 -0.102277
v -0.048199 0.273405 -0.102277
v -0.123115 0.303447 -0.082019
v -0.046921 0.303357 -0.102277
v -0.048199 0.273405 -0.102277
v -0.128333 0.273470 -0.082019
v -0.175425 0.303558 -0.045517
v -0.123115 0.303447 -0.082019
v -0.128333 0.273470 -0.082019
v -0.183350 0.273550 -0.045517
v -0.193977 0.303607 -0.000000
v -0.175425 0.303558 -0.045517
v -0.183350 0.273550 -0.045517
v -0.202862 0.273585 -0.000000
v -0.175425 0.303558 0.045517
v -0.193977 0.303607 -0.000000
v -0.202862 0.273585 -0.000000
v -0.183350 0.273550 0.045517
v -0.123115 0.303447 0.082019
v -0.175425 0.303558 0.045517
v -0.183350 0.273550 0.045517
v -0.128334 0.273470 0.082019
v -0.046922 0.303357 0.102277
v -0.123115 0.303447 0.082019
v -0.128334 0.273470 0.082019
v -0.048200 0.273405 0.102277
v 0.037947 0.303357 0.102277
v -0.046922 0.303357 0.102277
v -0.048200 0.273405 0.102277
v 0.041058 0.273405 0.102277
v 0.114139 0.303447 0.082019
v 0.037947 0.303357 0.102277
v 0.041058 0.273405 0.102277
v 0.121192 0.273470 0.082019
v 0.166450 0.303558 0.045517
v 0.114139 0.303447 0.082019
v 0.121192 0.273470 0.082019
v 0.176209 0.273550 0.045517
v 0.185002 0.303607 0.000000
v 0.166450 0.303558 0.045517
v 0.176209 0.273550 0.045517
v 0.195721 0.273585 0.000000
v 0.166450 0.303558 -0.045517
v 0.185002 0.303607 0.000000
v 0.195721 0.273585 0.000000
v 0.176209 0.273550 -0.045517
v 0.107921 0.329876 -0.082019
v 0.157846 0.330015 -0.045517
v 0.157846 0.330015 -0.045517
v 0.175553 0.330076 0.000000
v 0.175553 0.330076 0.000000
v 0.157846 0.330015 0.045517
v 0.157846 0.330015 0.045517
v 0.107921 0.329876 0.082019
v 0.107921 0.329876 0.082019
v 0.035203 0.329764 0.102277
v 0.035203 0.329764 0.102277
v -0.045795 0.329764 0.102277
v -0.045795 0.329764 0.102277
v -0.118513 0.329876 0.082019
v -0.118513 0.329876 0.082019
v -0.168438 0.330015 0.045517
v -0.168438 0.330015 0.045517
v -0.186145 0.330076 -0.000000
v -0.186145 0.330076 -0.000000
v -0.168438 0.330015 -0.045517
v -0.168438 0.330015 -0.045517
v -0.118513 0.329876 -0.082019
v -0.118513 0.329876 -0.082019
v -0.045795 0.329764 -0.102277
v -0.045795 0.329764 -0.102277
v 0.035203 0.329764 -0.102277
v 0.035203 0.329764 -0.102277
v 0.107921 0.329876 -0.082019
v 0.074563 0.485763 -0.033579
v 0.114801 0.459774 -0.033579
v 0.114801 0.459774 -0.033579
v 0.134920 0.446779 0.005306
v 0.134920 0.446779 0.005306
v 0.114801 0.459774 0.044191
v 0.114801 0.459774 0.044191
v 0.074563 0.485763 0.044191
v 0.074563 0.485763 0.044191
v 0.054445 0.498758 0.005306
v 0.054445 0.498758 0.005306
v 0.074563 0.485763 -0.033579
v -0.072632 0.493052 -0.036145
v -0.114066 0.469130 -0.036145
v -0.114066 0.469130 -0.036145
v -0.134783 0.457169 0.002740
v -0.134783 0.457169 0.002740
v -0.114066 0.469130 0.041625
v -0.114066 0.469130 0.041625
v -0.072632 0.493052 0.041625
v -0.072632 0.493052 0.041625
v -0.051915 0.505013 0.002740
v -0.051915 0.505013 0.002740
v -0.072632 0.493052 -0.036145
v 0.074563 0.485763 -0.033579
v 0.114801 0.459774 -0.033579
v 0.134920 0.446779 0.005306
v 0.114801 0.459774 0.044191
v 0.074563 0.485763 0.044191
v 0.054445 0.498758 0.005306
v -0.072632 0.493052 -0.036145
v -0.051915 0.505013 0.002740
v -0.072632 0.493052 0.041625
v -0.114066 0.469130 0.041625
v -0.134783 0.457169 0.002740
v -0.114066 0.469130 -0.036145
vn 0.0931 -0.6512 -0.7532
vn 0.2062 -0.7140 -0.6691
vn -0.0049 -1.0000 -0.0000
vn 0.0301 -0.6417 -0.7664
vn -0.0382 -0.6448 -0.7634
vn -0.1223 -0.6722 -0.7302
vn -0.2560 -0.7241 -0.6404
vn -0.6052 -0.7958 0.0212
vn -0.2525 -0.7038 0.6640
vn -0.0049 -1.0000 0.0001
vn -0.1287 -0.6671 0.7338
vn -0.0418 -0.6436 0.7642
vn 0.0291 -0.6409 0.7671
vn 0.0921 -0.6528 0.7519
vn 0.2094 -0.7156 0.6663
vn 0.5613 -0.8275 -0.0122
vn 0.5613 -0.8275 -0.0121
vn 0.1802 0.9744 -0.1346
vn 0.1183 0.9657 -0.2312
vn -0.0000 1.0000 -0.0000
vn 0.0405 0.9597 -0.2782
vn -0.0405 0.9597 -0.2781
vn -0.1183 0.9657 -0.2312
vn -0.1802 0.9744 -0.1346
vn -0.2052 0.9787 -0.0000
vn -0.1802 0.9744 0.1346
vn -0.1183 0.9657 0.2312
vn -0.0405 0.9597 0.2782
vn 0.0405 0.9597 0.2781
vn 0.1183 0.9657 0.2312
vn 0.1802 0.9744 0.1346
vn 0.2052 0.9787 -0.0000
vn 0.2350 0.3635 -0.9015
vn 0.2261 0.3501 -0.9090
vn 0.2345 0.3628 -0.9019
vn 0.8218 -0.2279 -0.5222
vn 0.8485 -0.1027 -0.5191
vn 0.8226 -0.2249 -0.5222
vn 0.8003 -0.2810 0.5297
vn 0.8485 -0.1027 0.5191
vn 0.8000 -0.2819 0.5297
vn 0.1864 0.2896 0.9388
vn 0.2261 0.3501 0.9090
vn 0.1839 0.2858 0.9405
vn -0.3364 0.8182 0.4662
vn -0.3039 0.8258 0.4751
vn -0.3382 0.8178 0.4657
vn -0.2998 0.8396 -0.4530
vn -0.3039 0.8258 -0.4751
vn -0.2999 0.8391 -0.4538
vn -0.2165 0.3748 -0.9015
vn -0.2161 0.3741 -0.9019
vn -0.2084 0.3609 -0.9090
vn -0.8323 -0.1870 -0.5218
vn -0.8330 -0.1839 -0.5218
vn -0.8528 -0.0607 -0.5187
vn -0.8135 -0.2410 0.5293
vn -0.8132 -0.2419 0.5293
vn -0.8528 -0.0607 0.5187
vn -0.1717 0.2986 0.9388
vn -0.1694 0.2947 0.9405
vn -0.2084 0.3609 0.9090
vn 0.3773 0.8003 0.4659
vn 0.3791 0.7998 0.4654
vn 0.3452 0.8096 0.4748
vn 0.3418 0.8235 -0.4527
vn 0.3419 0.8230 -0.4536
vn 0.3452 0.8096 -0.4748
vn 0.1827 -0.3882 -0.9033
vn 0.4708 -0.2532 -0.8451
vn 0.0511 -0.4666 -0.8830
vn -0.0546 -0.4661 -0.8830
vn -0.2037 -0.3861 -0.8997
vn -0.5103 -0.2177 -0.8320
vn -0.9958 -0.0909 0.0057
vn -0.5054 -0.2130 0.8362
vn -0.2068 -0.3803 0.9015
vn -0.0590 -0.4641 0.8838
vn 0.0509 -0.4656 0.8836
vn 0.1827 -0.3892 0.9029
vn 0.4784 -0.2551 0.8403
vn 0.9886 -0.1489 -0.0213
vn 0.9886 -0.1489 -0.0212
vn 0.2620 -0.1870 -0.9468
vn 0.5698 -0.0591 -0.8197
vn 0.0792 -0.2456 -0.9661
vn -0.0772 -0.2488 -0.9655
vn -0.2645 -0.2022 -0.9430
vn -0.5806 -0.0956 -0.8086
vn -0.9997 0.0233 -0.0026
vn -0.5805 -0.0984 0.8083
vn -0.9997 0.0232 -0.0026
vn -0.2663 -0.2027 0.9423
vn -0.0784 -0.2502 0.9650
vn 0.0788 -0.2454 0.9662
vn 0.2619 -0.1845 0.9473
vn 0.5779 -0.0540 0.8144
vn 0.9950 0.0985 -0.0176
vn 0.9950 0.0984 -0.0176
vn 0.3197 -0.1115 -0.9409
vn 0.6563 -0.0182 -0.7543
vn 0.0954 -0.1582 -0.9828
vn -0.0984 -0.1584 -0.9825
vn -0.3271 -0.1156 -0.9379
vn -0.6742 -0.0355 -0.7377
vn -0.9997 0.0259 0.0005
vn -0.6743 -0.0367 0.7376
vn -0.9997 0.0258 0.0006
vn -0.3280 -0.1170 0.9374
vn -0.0988 -0.1590 0.9823
vn 0.0951 -0.1578 0.9829
vn 0.3179 -0.1097 0.9418
vn 0.6588 -0.0138 0.7522
vn 0.9977 0.0675 -0.0071
vn 0.3446 -0.1042 -0.9330
vn 0.6901 0.0026 -0.7237
vn 0.1051 -0.1552 -0.9823
vn -0.1021 -0.1513 -0.9832
vn -0.3415 -0.0907 -0.9355
vn -0.6868 0.0308 -0.7262
vn -0.9908 0.1353 -0.0001
vn -0.6868 0.0307 0.7262
vn -0.9908 0.1353 -0.0002
vn -0.3415 -0.0907 0.9355
vn -0.1021 -0.1513 0.9832
vn 0.1051 -0.1552 0.9823
vn 0.3444 -0.1040 0.9331
vn 0.6899 0.0029 0.7239
vn 0.9955 0.0945 -0.0009
vn 0.9955 0.0945 -0.0010
vn 0.7777 -0.1648 -0.6067
vn 0.4231 -0.2412 -0.8734
vn 0.4484 -0.1115 -0.8869
vn 0.7989 -0.0035 -0.6014
vn 0.1302 -0.2845 -0.9498
vn 0.1398 -0.1760 -0.9744
vn -0.1303 -0.2844 -0.9498
vn -0.1399 -0.1760 -0.9744
vn -0.4231 -0.2412 -0.8734
vn -0.4484 -0.1115 -0.8869
vn -0.7776 -0.1651 -0.6066
vn -0.7989 -0.0036 -0.6014
vn -0.9930 -0.1183 -0.0001
vn -0.9981 0.0609 -0.0000
vn -0.9930 -0.1183 -0.0000
vn -0.7777 -0.1648 0.6067
vn -0.7989 -0.0036 0.6014
vn -0.9981 0.0609 0.0001
vn -0.4231 -0.2412 0.8734
vn -0.4484 -0.1115 0.8869
vn -0.1302 -0.2845 0.9498
vn -0.1399 -0.1760 0.9744
vn 0.1302 -0.2844 0.9498
vn 0.1399 -0.1760 0.9744
vn 0.4231 -0.2412 0.8734
vn 0.4484 -0.1115 0.8869
vn 0.7776 -0.1651 0.6066
vn 0.7989 -0.0036 0.6014
vn 0.9930 -0.1183 -0.0000
vn 0.9981 0.0609 -0.0000
vn 0.9981 0.0609 -0.0001
vn 0.4601 0.1002 -0.8822
vn 0.7869 0.2215 -0.5760
vn 0.1469 0.0260 -0.9888
vn -0.1469 0.0260 -0.9888
vn -0.4601 0.1002 -0.8822
vn -0.7869 0.2215 -0.5760
vn -0.9564 0.2922 -0.0001
vn -0.7869 0.2215 0.5760
vn -0.9564 0.2921 -0.0000
vn -0.4601 0.1002 0.8822
vn -0.1469 0.0260 0.9888
vn 0.1469 0.0260 0.9888
vn 0.4601 0.1002 0.8822
vn 0.7869 0.2215 0.5760
vn 0.9564 0.2922 0.0001
vn 0.9564 0.2921 -0.0001
vn 0.4565 0.2641 -0.8496
vn 0.7631 0.3496 -0.5436
vn 0.1481 0.2127 -0.9658
vn -0.1481 0.2127 -0.9658
vn -0.4565 0.2641 -0.8496
vn -0.7631 0.3496 -0.5436
vn -0.9167 0.3996 -0.0000
vn -0.7631 0.3496 0.5436
vn -0.4565 0.2641 0.8496
vn -0.1481 0.2127 0.9658
vn 0.1482 0.2127 0.9658
vn 0.4565 0.2641 0.8496
vn 0.7631 0.3496 0.5436
vn 0.9167 0.3996 -0.0000
vn 0.4384 0.4284 -0.7901
vn 0.7179 0.4872 -0.4972
vn 0.1443 0.3930 -0.9081
vn -0.1443 0.3930 -0.9082
vn -0.4384 0.4284 -0.7901
vn -0.7179 0.4872 -0.4972
vn -0.8532 0.5216 -0.0000
vn -0.7179 0.4872 0.4972
vn -0.4384 0.4284 0.7901
vn -0.1443 0.3930 0.9081
vn 0.1443 0.3930 0.9081
vn 0.4384 0.4284 0.7901
vn 0.7179 0.4872 0.4972
vn 0.8532 0.5216 -0.0000
vn 0.3845 0.6086 -0.6941
vn 0.6154 0.6623 -0.4274
vn 0.1283 0.5749 -0.8081
vn -0.1283 0.5748 -0.8082
vn -0.3845 0.6086 -0.6942
vn -0.6154 0.6623 -0.4273
vn -0.7216 0.6923 -0.0000
vn -0.6154 0.6623 0.4273
vn -0.7216 0.6923 0.0001
vn -0.3845 0.6086 0.6941
vn -0.1283 0.5749 0.8081
vn 0.1283 0.5748 0.8082
vn 0.3845 0.6086 0.6941
vn 0.6154 0.6623 0.4273
vn 0.7216 0.6923 0.0001
vn 0.7216 0.6923 -0.0001
vn 0.2976 0.7820 -0.5477
vn 0.4638 0.8229 -0.3282
vn 0.1010 0.7544 -0.6486
vn -0.1010 0.7543 -0.6487
vn -0.2976 0.7820 -0.5477
vn -0.4638 0.8229 -0.3282
vn -0.5359 0.8443 -0.0000
vn -0.4638 0.8229 0.3282
vn -0.2976 0.7820 0.5477
vn -0.1010 0.7544 0.6486
vn 0.1010 0.7543 0.6487
vn 0.2976 0.7820 0.5477
vn 0.4638 0.8229 0.3282
vn 0.5359 0.8443 -0.0000
vn 0.2009 0.9033 -0.3792
vn 0.3057 0.9260 -0.2214
vn 0.0691 0.8871 -0.4563
vn -0.0691 0.8871 -0.4563
vn -0.2009 0.9033 -0.3792
vn -0.3056 0.9260 -0.2214
vn -0.3484 0.9374 -0.0000
vn -0.3057 0.9260 0.2214
vn -0.3484 0.9374 0.0001
vn -0.2009 0.9033 0.3792
vn -0.0691 0.8871 0.4563
vn 0.0691 0.8871 0.4563
vn 0.2009 0.9033 0.3792
vn 0.3056 0.9260 0.2214
vn 0.3484 0.9374 -0.0000
vn 0.3057 0.9260 0.2214
vn 0.3483 0.9374 -0.0000
vn 0.5648 0.1583 -0.8099
vn 0.5622 0.1576 -0.8118
vn 0.5554 0.1556 -0.8169
vn 0.2563 0.0434 -0.9656
vn 0.2551 0.0433 -0.9659
vn 0.2506 0.0425 -0.9672
vn -0.0000 -0.0000 -1.0000
vn -0.2555 0.0277 -0.9664
vn -0.2562 0.0278 -0.9662
vn -0.2507 0.0272 -0.9677
vn -0.5653 0.1239 -0.8155
vn -0.5673 0.1243 -0.8141
vn -0.5581 0.1223 -0.8207
vn -0.8957 0.2508 -0.3671
vn -0.8961 0.2509 -0.3661
vn -0.8932 0.2501 -0.3737
vn -0.8961 0.2509 0.3661
vn -0.8957 0.2508 0.3670
vn -0.8932 0.2501 0.3737
vn -0.5673 0.1243 0.8141
vn -0.5653 0.1239 0.8155
vn -0.5581 0.1223 0.8207
vn -0.5580 0.1223 0.8208
vn -0.2562 0.0278 0.9662
vn -0.2555 0.0277 0.9664
vn -0.2508 0.0272 0.9677
vn -0.0000 -0.0000 1.0000
vn 0.2551 0.0433 0.9659
vn 0.2563 0.0435 0.9656
vn 0.2506 0.0425 0.9672
vn 0.5623 0.1576 0.8118
vn 0.5648 0.1582 0.8099
vn 0.5554 0.1556 0.8169
vn 0.5554 0.1557 0.8169
vn 0.8823 0.3010 0.3618
vn 0.8828 0.3011 0.3606
vn 0.8800 0.3002 0.3682
vn 0.8799 0.3002 0.3682
vn 0.8828 0.3011 -0.3606
vn 0.8824 0.3010 -0.3617
vn 0.8800 0.3002 -0.3682
vn 0.5733 0.1607 -0.8034
vn 0.8855 0.3021 -0.3531
vn 0.8855 0.3021 -0.3530
vn 0.8855 0.3020 0.3530
vn 0.8855 0.3021 0.3531
vn 0.5733 0.1607 0.8034
vn 0.2622 0.0445 0.9640
vn -0.2624 0.0284 0.9645
vn -0.2624 0.0285 0.9645
vn -0.5763 0.1263 0.8074
vn -0.8990 0.2517 0.3584
vn -0.8990 0.2518 -0.3584
vn -0.8990 0.2517 -0.3584
vn -0.5763 0.1263 -0.8074
vn -0.2624 0.0284 -0.9645
vn 0.2622 0.0445 -0.9640
vn 0.2364 0.3657 -0.9002
vn 0.2363 0.3659 -0.9002
vn 0.8154 -0.2506 -0.5218
vn 0.8154 -0.2506 -0.5219
vn 0.7871 -0.3161 0.5296
vn 0.7872 -0.3161 0.5296
vn 0.1768 0.2748 0.9451
vn 0.1768 0.2749 0.9451
vn -0.3437 0.8164 0.4642
vn -0.2991 0.8418 -0.4494
vn -0.2178 0.3771 -0.9002
vn -0.2178 0.3772 -0.9002
vn -0.8270 -0.2099 -0.5215
vn -0.8021 -0.2767 0.5292
vn -0.1629 0.2833 0.9451
vn -0.1628 0.2833 0.9451
vn 0.3845 0.7981 0.4639
vn 0.3845 0.7981 0.4638
vn 0.3412 0.8258 -0.4491
vn -0.5426 -0.8400 -0.0000
vn 0.5000 -0.8660 -0.0000
vt 0.642342 0.443999
vt 0.609302 0.444642
vt 0.712955 0.451285
vt 0.687798 0.444332
vt 0.738112 0.444332
vt 0.783404 0.442754
vt 0.814397 0.440530
vt 0.825447 0.439671
vt 0.167702 0.442480
vt 0.156788 0.442233
vt 0.266867 0.453845
vt 0.197983 0.444985
vt 0.242249 0.446893
vt 0.291484 0.446893
vt 0.336179 0.446748
vt 0.368741 0.447249
vt 0.379934 0.447143
vt 0.597409 0.444582
vt 0.693228 0.057670
vt 0.699304 0.057670
vt 0.712955 0.055444
vt 0.708083 0.057670
vt 0.717827 0.057670
vt 0.726606 0.057670
vt 0.732682 0.057670
vt 0.734850 0.057670
vt 0.244717 0.059789
vt 0.250459 0.061327
vt 0.264898 0.059053
vt 0.247563 0.060296
vt 0.253508 0.060296
vt 0.266867 0.058070
vt 0.262099 0.060296
vt 0.271634 0.060296
vt 0.280225 0.060296
vt 0.286170 0.060296
vt 0.272974 0.061490
vt 0.267232 0.063029
vt 0.287177 0.062884
vt 0.691060 0.057670
vt 0.638857 0.061642
vt 0.611789 0.043477
vt 0.625706 0.073729
vt 0.619009 0.079883
vt 0.184800 0.059965
vt 0.185157 0.022637
vt 0.192492 0.055210
vt 0.207599 0.045872
vt 0.215017 0.041286
vt 0.645314 0.055707
vt 0.628867 0.415371
vt 0.589481 0.415173
vt 0.682572 0.414879
vt 0.741627 0.414907
vt 0.794725 0.414063
vt 0.830975 0.410703
vt 0.843976 0.409875
vt 0.151515 0.412442
vt 0.138656 0.412442
vt 0.187083 0.415230
vt 0.238809 0.417473
vt 0.296598 0.417445
vt 0.350115 0.418029
vt 0.388311 0.417441
vt 0.401170 0.417198
vt 0.575707 0.414632
vt 0.634621 0.382084
vt 0.597957 0.381382
vt 0.684100 0.382178
vt 0.738768 0.382178
vt 0.787972 0.381884
vt 0.821484 0.378506
vt 0.833450 0.377338
vt 0.160860 0.379910
vt 0.148956 0.379910
vt 0.193751 0.382699
vt 0.241607 0.384749
vt 0.295103 0.384749
vt 0.344833 0.384183
vt 0.380269 0.383577
vt 0.392173 0.383640
vt 0.584901 0.381068
vt 0.635773 0.302234
vt 0.601424 0.302234
vt 0.685409 0.302234
vt 0.740501 0.302234
vt 0.790136 0.302234
vt 0.824484 0.302226
vt 0.836725 0.302118
vt 0.157747 0.304709
vt 0.145752 0.304703
vt 0.191341 0.304819
vt 0.239912 0.304819
vt 0.293821 0.304819
vt 0.342392 0.304819
vt 0.376087 0.304782
vt 0.388088 0.304780
vt 0.589076 0.302195
vt 0.638606 0.240713
vt 0.606267 0.240651
vt 0.685708 0.240762
vt 0.738173 0.240762
vt 0.785276 0.240713
vt 0.817614 0.240651
vt 0.831823 0.232416
vt 0.164452 0.243246
vt 0.150489 0.235801
vt 0.196097 0.243308
vt 0.242189 0.243358
vt 0.293529 0.243358
vt 0.339621 0.243308
vt 0.371265 0.243246
vt 0.382488 0.243219
vt 0.594798 0.240624
vt 0.617061 0.197173
vt 0.646407 0.197279
vt 0.645155 0.176116
vt 0.615548 0.175909
vt 0.689150 0.197366
vt 0.688642 0.176287
vt 0.736760 0.197366
vt 0.737269 0.176287
vt 0.779503 0.197279
vt 0.780755 0.176116
vt 0.808849 0.197173
vt 0.810361 0.175909
vt 0.821917 0.175692
vt 0.808796 0.147907
vt 0.160183 0.179086
vt 0.173029 0.199776
vt 0.171550 0.178516
vt 0.173337 0.151306
vt 0.201746 0.199882
vt 0.200521 0.178722
vt 0.243572 0.199969
vt 0.243074 0.178893
vt 0.290161 0.199969
vt 0.290659 0.178893
vt 0.331987 0.199882
vt 0.333212 0.178722
vt 0.360704 0.199776
vt 0.362183 0.178516
vt 0.370888 0.199728
vt 0.372393 0.178426
vt 0.606653 0.197126
vt 0.605115 0.175820
vt 0.647946 0.153744
vt 0.619400 0.153728
vt 0.689676 0.153714
vt 0.736234 0.153714
vt 0.777964 0.153744
vt 0.806509 0.153728
vt 0.802236 0.153703
vt 0.175319 0.156338
vt 0.179813 0.156313
vt 0.203252 0.156354
vt 0.244087 0.156324
vt 0.289646 0.156324
vt 0.330481 0.156354
vt 0.358414 0.156338
vt 0.368292 0.156313
vt 0.609306 0.153703
vt 0.652491 0.131040
vt 0.625621 0.131438
vt 0.691369 0.130670
vt 0.734541 0.130670
vt 0.773419 0.131040
vt 0.800288 0.131438
vt 0.809867 0.131594
vt 0.181406 0.134052
vt 0.172034 0.134207
vt 0.207700 0.133654
vt 0.245744 0.133284
vt 0.287989 0.133284
vt 0.326033 0.133654
vt 0.352327 0.134052
vt 0.361699 0.134207
vt 0.616043 0.131594
vt 0.657578 0.109557
vt 0.632930 0.110041
vt 0.693192 0.109144
vt 0.732718 0.109144
vt 0.768331 0.109557
vt 0.792980 0.110041
vt 0.801777 0.110246
vt 0.188558 0.112659
vt 0.179950 0.112863
vt 0.212678 0.112175
vt 0.247528 0.111761
vt 0.286205 0.111761
vt 0.321055 0.112175
vt 0.345175 0.112659
vt 0.353784 0.112863
vt 0.624133 0.110246
vt 0.664989 0.090093
vt 0.643643 0.090317
vt 0.695836 0.089910
vt 0.730074 0.089910
vt 0.760921 0.090093
vt 0.782267 0.090317
vt 0.789886 0.090415
vt 0.199041 0.092938
vt 0.191586 0.093035
vt 0.219929 0.092714
vt 0.250115 0.092531
vt 0.283618 0.092531
vt 0.313804 0.092714
vt 0.334692 0.092938
vt 0.342147 0.093035
vt 0.636024 0.090415
vt 0.674705 0.074813
vt 0.657682 0.074813
vt 0.699304 0.074813
vt 0.726606 0.074813
vt 0.751205 0.074813
vt 0.768228 0.074813
vt 0.774303 0.074813
vt 0.212779 0.077436
vt 0.206834 0.077436
vt 0.229437 0.077436
vt 0.253508 0.077436
vt 0.280225 0.077436
vt 0.304296 0.077436
vt 0.320954 0.077436
vt 0.326899 0.077436
vt 0.651607 0.074813
vt 0.686337 0.064236
vt 0.674491 0.064236
vt 0.703455 0.064236
vt 0.722455 0.064236
vt 0.739573 0.064236
vt 0.751419 0.064236
vt 0.755647 0.064236
vt 0.229228 0.066861
vt 0.225090 0.066861
vt 0.240820 0.066861
vt 0.257570 0.066861
vt 0.276163 0.066861
vt 0.292914 0.066861
vt 0.304506 0.066861
vt 0.337943 0.095184
vt 0.345398 0.095281
vt 0.330149 0.079682
vt 0.324204 0.079682
vt 0.670263 0.064236
vt 0.245441 0.060296
vt 0.308643 0.066861
vt 0.288292 0.060296
vt 0.642752 0.217630
vt 0.612003 0.217545
vt 0.687537 0.217700
vt 0.737422 0.217700
vt 0.782208 0.217630
vt 0.812956 0.217545
vt 0.826559 0.202270
vt 0.169011 0.220144
vt 0.155641 0.205660
vt 0.199099 0.220230
vt 0.242924 0.220299
vt 0.291739 0.220299
vt 0.335564 0.220230
vt 0.365652 0.220144
vt 0.376323 0.220106
vt 0.601099 0.217507
vt 0.674960 0.084362
vt 0.648551 0.107608
vt 0.635347 0.119231
vt 0.192641 0.101985
vt 0.207706 0.093114
vt 0.237837 0.075374
vt 0.252903 0.066504
vt 0.688164 0.072740
vt 0.210078 0.485665
vt 0.001877 0.869923
vt 0.001877 0.613751
vt 0.210078 0.998008
vt 0.418279 0.613751
vt 0.418279 0.869923
s 1
usemtl lambert3
f 1/1/1 2/2/2 3/3/3
f 4/4/4 1/1/1 3/3/3
f 5/5/5 4/4/4 3/3/3
f 6/6/6 5/5/5 3/3/3
f 7/7/7 6/6/6 3/3/3
f 8/8/8 7/7/7 3/3/3
f 9/9/9 10/10/8 11/11/10
f 12/12/11 9/9/9 11/11/10
f 13/13/12 12/12/11 11/11/10
f 14/14/13 13/13/12 11/11/10
f 15/15/14 14/14/13 11/11/10
f 16/16/15 15/15/14 11/11/10
f 17/17/16 16/16/15 11/11/10
f 2/2/2 18/18/17 3/3/3
f 19/19/18 20/20/19 21/21/20
f 20/20/19 22/22/21 21/21/20
f 22/22/21 23/23/22 21/21/20
f 23/23/22 24/24/23 21/21/20
f 24/24/23 25/25/24 21/21/20
f 25/25/24 26/26/25 21/21/20
f 27/27/25 28/28/26 29/29/20
f 30/30/26 31/31/27 32/32/20
f 31/31/27 33/33/28 32/32/20
f 33/33/28 34/34/29 32/32/20
f 34/34/29 35/35/30 32/32/20
f 35/35/30 36/36/31 32/32/20
f 37/37/31 38/38/32 39/39/20
f 40/40/32 19/19/18 21/21/20
f 41/41/33 42/42/34 43/43/35
f 44/43/36 45/42/37 46/44/38
f 47/45/39 48/46/40 49/47/41
f 50/47/42 51/46/43 52/48/44
f 53/48/45 54/46/46 55/49/47
f 56/50/48 57/42/49 58/41/50
f 59/41/51 60/43/52 61/42/53
f 62/43/54 63/44/55 64/42/56
f 65/45/57 66/47/58 67/46/59
f 68/47/60 69/48/61 70/46/62
f 71/48/63 72/49/64 73/46/65
f 74/50/66 75/41/67 76/42/68
f 2/2/2 1/1/1 77/51/69
f 2/2/2 77/51/69 78/52/70
f 1/1/1 4/4/4 79/53/71
f 1/1/1 79/53/71 77/51/69
f 4/4/4 5/5/5 80/54/72
f 4/4/4 80/54/72 79/53/71
f 5/5/5 6/6/6 81/55/73
f 5/5/5 81/55/73 80/54/72
f 6/6/6 7/7/7 82/56/74
f 6/6/6 82/56/74 81/55/73
f 7/7/7 8/8/8 83/57/75
f 7/7/7 83/57/75 82/56/74
f 10/10/8 9/9/9 84/58/76
f 10/10/8 84/58/76 85/59/75
f 9/9/9 12/12/11 86/60/77
f 9/9/9 86/60/77 84/58/76
f 12/12/11 13/13/12 87/61/78
f 12/12/11 87/61/78 86/60/77
f 13/13/12 14/14/13 88/62/79
f 13/13/12 88/62/79 87/61/78
f 14/14/13 15/15/14 89/63/80
f 14/14/13 89/63/80 88/62/79
f 15/15/14 16/16/15 90/64/81
f 15/15/14 90/64/81 89/63/80
f 16/16/15 17/17/16 91/65/82
f 16/16/15 91/65/82 90/64/81
f 18/18/17 2/2/2 78/52/70
f 18/18/17 78/52/70 92/66/83
f 78/52/70 77/51/69 93/67/84
f 78/52/70 93/67/84 94/68/85
f 77/51/69 79/53/71 95/69/86
f 77/51/69 95/69/86 93/67/84
f 79/53/71 80/54/72 96/70/87
f 79/53/71 96/70/87 95/69/86
f 80/54/72 81/55/73 97/71/88
f 80/54/72 97/71/88 96/70/87
f 81/55/73 82/56/74 98/72/89
f 81/55/73 98/72/89 97/71/88
f 82/56/74 83/57/75 99/73/90
f 82/56/74 99/73/90 98/72/89
f 85/59/75 84/58/76 100/74/91
f 85/59/75 100/74/91 101/75/92
f 84/58/76 86/60/77 102/76/93
f 84/58/76 102/76/93 100/74/91
f 86/60/77 87/61/78 103/77/94
f 86/60/77 103/77/94 102/76/93
f 87/61/78 88/62/79 104/78/95
f 87/61/78 104/78/95 103/77/94
f 88/62/79 89/63/80 105/79/96
f 88/62/79 105/79/96 104/78/95
f 89/63/80 90/64/81 106/80/97
f 89/63/80 106/80/97 105/79/96
f 90/64/81 91/65/82 107/81/98
f 90/64/81 107/81/98 106/80/97
f 92/66/83 78/52/70 94/68/85
f 92/66/83 94/68/85 108/82/99
f 94/68/85 93/67/84 109/83/100
f 94/68/85 109/83/100 110/84/101
f 93/67/84 95/69/86 111/85/102
f 93/67/84 111/85/102 109/83/100
f 95/69/86 96/70/87 112/86/103
f 95/69/86 112/86/103 111/85/102
f 96/70/87 97/71/88 113/87/104
f 96/70/87 113/87/104 112/86/103
f 97/71/88 98/72/89 114/88/105
f 97/71/88 114/88/105 113/87/104
f 98/72/89 99/73/90 115/89/106
f 98/72/89 115/89/106 114/88/105
f 101/75/92 100/74/91 116/90/107
f 101/75/92 116/90/107 117/91/108
f 100/74/91 102/76/93 118/92/109
f 100/74/91 118/92/109 116/90/107
f 102/76/93 103/77/94 119/93/110
f 102/76/93 119/93/110 118/92/109
f 103/77/94 104/78/95 120/94/111
f 103/77/94 120/94/111 119/93/110
f 104/78/95 105/79/96 121/95/112
f 104/78/95 121/95/112 120/94/111
f 105/79/96 106/80/97 122/96/113
f 105/79/96 122/96/113 121/95/112
f 106/80/97 107/81/98 123/97/114
f 106/80/97 123/97/114 122/96/113
f 108/82/99 94/68/85 110/84/101
f 108/82/99 110/84/101 124/98/114
f 110/84/101 109/83/100 125/99/115
f 110/84/101 125/99/115 126/100/116
f 109/83/100 111/85/102 127/101/117
f 109/83/100 127/101/117 125/99/115
f 111/85/102 112/86/103 128/102/118
f 111/85/102 128/102/118 127/101/117
f 112/86/103 113/87/104 129/103/119
f 112/86/103 129/103/119 128/102/118
f 113/87/104 114/88/105 130/104/120
f 113/87/104 130/104/120 129/103/119
f 114/88/105 115/89/106 131/105/121
f 114/88/105 131/105/121 130/104/120
f 117/91/108 116/90/107 132/106/122
f 117/91/108 132/106/122 133/107/123
f 116/90/107 118/92/109 134/108/124
f 116/90/107 134/108/124 132/106/122
f 118/92/109 119/93/110 135/109/125
f 118/92/109 135/109/125 134/108/124
f 119/93/110 120/94/111 136/110/126
f 119/93/110 136/110/126 135/109/125
f 120/94/111 121/95/112 137/111/127
f 120/94/111 137/111/127 136/110/126
f 121/95/112 122/96/113 138/112/128
f 121/95/112 138/112/128 137/111/127
f 122/96/113 123/97/114 139/113/129
f 122/96/113 139/113/129 138/112/128
f 124/98/114 110/84/101 126/100/116
f 124/98/114 126/100/116 140/114/130
f 141/115/131 142/116/132 143/117/133
f 141/115/131 143/117/133 144/118/134
f 142/116/132 145/119/135 146/120/136
f 142/116/132 146/120/136 143/117/133
f 145/119/135 147/121/137 148/122/138
f 145/119/135 148/122/138 146/120/136
f 147/121/137 149/123/139 150/124/140
f 147/121/137 150/124/140 148/122/138
f 149/123/139 151/125/141 152/126/142
f 149/123/139 152/126/142 150/124/140
f 151/125/141 153/127/143 154/128/144
f 151/125/141 154/128/144 152/126/142
f 155/129/145 156/130/146 157/131/147
f 155/129/145 157/131/147 158/132/148
f 156/130/146 159/133/149 160/134/150
f 156/130/146 160/134/150 157/131/147
f 159/133/149 161/135/151 162/136/152
f 159/133/149 162/136/152 160/134/150
f 161/135/151 163/137/153 164/138/154
f 161/135/151 164/138/154 162/136/152
f 163/137/153 165/139/155 166/140/156
f 163/137/153 166/140/156 164/138/154
f 165/139/155 167/141/157 168/142/158
f 165/139/155 168/142/158 166/140/156
f 167/141/157 169/143/159 170/144/160
f 167/141/157 170/144/160 168/142/158
f 171/145/159 141/115/131 144/118/134
f 171/145/159 144/118/134 172/146/161
f 144/118/134 143/117/133 173/147/162
f 144/118/134 173/147/162 174/148/163
f 143/117/133 146/120/136 175/149/164
f 143/117/133 175/149/164 173/147/162
f 146/120/136 148/122/138 176/150/165
f 146/120/136 176/150/165 175/149/164
f 148/122/138 150/124/140 177/151/166
f 148/122/138 177/151/166 176/150/165
f 150/124/140 152/126/142 178/152/167
f 150/124/140 178/152/167 177/151/166
f 152/126/142 154/128/144 179/153/168
f 152/126/142 179/153/168 178/152/167
f 158/132/148 157/131/147 180/154/169
f 158/132/148 180/154/169 181/155/170
f 157/131/147 160/134/150 182/156/171
f 157/131/147 182/156/171 180/154/169
f 160/134/150 162/136/152 183/157/172
f 160/134/150 183/157/172 182/156/171
f 162/136/152 164/138/154 184/158/173
f 162/136/152 184/158/173 183/157/172
f 164/138/154 166/140/156 185/159/174
f 164/138/154 185/159/174 184/158/173
f 166/140/156 168/142/158 186/160/175
f 166/140/156 186/160/175 185/159/174
f 168/142/158 170/144/160 187/161/176
f 168/142/158 187/161/176 186/160/175
f 172/146/161 144/118/134 174/148/163
f 172/146/161 174/148/163 188/162/177
f 174/148/163 173/147/162 189/163/178
f 174/148/163 189/163/178 190/164/179
f 173/147/162 175/149/164 191/165/180
f 173/147/162 191/165/180 189/163/178
f 175/149/164 176/150/165 192/166/181
f 175/149/164 192/166/181 191/165/180
f 176/150/165 177/151/166 193/167/182
f 176/150/165 193/167/182 192/166/181
f 177/151/166 178/152/167 194/168/183
f 177/151/166 194/168/183 193/167/182
f 178/152/167 179/153/168 195/169/184
f 178/152/167 195/169/184 194/168/183
f 181/155/170 180/154/169 196/170/185
f 181/155/170 196/170/185 197/171/184
f 180/154/169 182/156/171 198/172/186
f 180/154/169 198/172/186 196/170/185
f 182/156/171 183/157/172 199/173/187
f 182/156/171 199/173/187 198/172/186
f 183/157/172 184/158/173 200/174/188
f 183/157/172 200/174/188 199/173/187
f 184/158/173 185/159/174 201/175/189
f 184/158/173 201/175/189 200/174/188
f 185/159/174 186/160/175 202/176/190
f 185/159/174 202/176/190 201/175/189
f 186/160/175 187/161/176 203/177/191
f 186/160/175 203/177/191 202/176/190
f 188/162/177 174/148/163 190/164/179
f 188/162/177 190/164/179 204/178/191
f 190/164/179 189/163/178 205/179/192
f 190/164/179 205/179/192 206/180/193
f 189/163/178 191/165/180 207/181/194
f 189/163/178 207/181/194 205/179/192
f 191/165/180 192/166/181 208/182/195
f 191/165/180 208/182/195 207/181/194
f 192/166/181 193/167/182 209/183/196
f 192/166/181 209/183/196 208/182/195
f 193/167/182 194/168/183 210/184/197
f 193/167/182 210/184/197 209/183/196
f 194/168/183 195/169/184 211/185/198
f 194/168/183 211/185/198 210/184/197
f 197/171/184 196/170/185 212/186/199
f 197/171/184 212/186/199 213/187/198
f 196/170/185 198/172/186 214/188/200
f 196/170/185 214/188/200 212/186/199
f 198/172/186 199/173/187 215/189/201
f 198/172/186 215/189/201 214/188/200
f 199/173/187 200/174/188 216/190/202
f 199/173/187 216/190/202 215/189/201
f 200/174/188 201/175/189 217/191/203
f 200/174/188 217/191/203 216/190/202
f 201/175/189 202/176/190 218/192/204
f 201/175/189 218/192/204 217/191/203
f 202/176/190 203/177/191 219/193/205
f 202/176/190 219/193/205 218/192/204
f 204/178/191 190/164/179 206/180/193
f 204/178/191 206/180/193 220/194/205
f 206/180/193 205/179/192 221/195/206
f 206/180/193 221/195/206 222/196/207
f 205/179/192 207/181/194 223/197/208
f 205/179/192 223/197/208 221/195/206
f 207/181/194 208/182/195 224/198/209
f 207/181/194 224/198/209 223/197/208
f 208/182/195 209/183/196 225/199/210
f 208/182/195 225/199/210 224/198/209
f 209/183/196 210/184/197 226/200/211
f 209/183/196 226/200/211 225/199/210
f 210/184/197 211/185/198 227/201/212
f 210/184/197 227/201/212 226/200/211
f 213/187/198 212/186/199 228/202/213
f 213/187/198 228/202/213 229/203/214
f 212/186/199 214/188/200 230/204/215
f 212/186/199 230/204/215 228/202/213
f 214/188/200 215/189/201 231/205/216
f 214/188/200 231/205/216 230/204/215
f 215/189/201 216/190/202 232/206/217
f 215/189/201 232/206/217 231/205/216
f 216/190/202 217/191/203 233/207/218
f 216/190/202 233/207/218 232/206/217
f 217/191/203 218/192/204 234/208/219
f 217/191/203 234/208/219 233/207/218
f 218/192/204 219/193/205 235/209/220
f 218/192/204 235/209/220 234/208/219
f 220/194/205 206/180/193 222/196/207
f 220/194/205 222/196/207 236/210/221
f 222/196/207 221/195/206 237/211/222
f 222/196/207 237/211/222 238/212/223
f 221/195/206 223/197/208 239/213/224
f 221/195/206 239/213/224 237/211/222
f 223/197/208 224/198/209 240/214/225
f 223/197/208 240/214/225 239/213/224
f 224/198/209 225/199/210 241/215/226
f 224/198/209 241/215/226 240/214/225
f 225/199/210 226/200/211 242/216/227
f 225/199/210 242/216/227 241/215/226
f 226/200/211 227/201/212 243/217/228
f 226/200/211 243/217/228 242/216/227
f 229/203/214 228/202/213 244/218/229
f 229/203/214 244/218/229 245/219/228
f 228/202/213 230/204/215 246/220/230
f 228/202/213 246/220/230 244/218/229
f 230/204/215 231/205/216 247/221/231
f 230/204/215 247/221/231 246/220/230
f 231/205/216 232/206/217 248/222/232
f 231/205/216 248/222/232 247/221/231
f 232/206/217 233/207/218 249/223/233
f 232/206/217 249/223/233 248/222/232
f 233/207/218 234/208/219 250/224/234
f 233/207/218 250/224/234 249/223/233
f 234/208/219 235/209/220 251/225/235
f 234/208/219 251/225/235 250/224/234
f 236/210/221 222/196/207 238/212/223
f 236/210/221 238/212/223 252/226/235
f 238/212/223 237/211/222 253/227/236
f 238/212/223 253/227/236 254/228/237
f 237/211/222 239/213/224 255/229/238
f 237/211/222 255/229/238 253/227/236
f 239/213/224 240/214/225 256/230/239
f 239/213/224 256/230/239 255/229/238
f 240/214/225 241/215/226 257/231/240
f 240/214/225 257/231/240 256/230/239
f 241/215/226 242/216/227 258/232/241
f 241/215/226 258/232/241 257/231/240
f 242/216/227 243/217/228 259/233/242
f 242/216/227 259/233/242 258/232/241
f 245/219/228 244/218/229 260/234/243
f 245/219/228 260/234/243 261/235/244
f 244/218/229 246/220/230 262/236/245
f 244/218/229 262/236/245 260/234/243
f 246/220/230 247/221/231 263/237/246
f 246/220/230 263/237/246 262/236/245
f 247/221/231 248/222/232 264/238/247
f 247/221/231 264/238/247 263/237/246
f 248/222/232 249/223/233 265/239/248
f 248/222/232 265/239/248 264/238/247
f 249/223/233 250/224/234 266/240/249
f 249/223/233 266/240/249 265/239/248
f 267/241/234 268/242/235 269/243/250
f 267/241/234 269/243/250 270/244/251
f 252/226/235 238/212/223 254/228/237
f 252/226/235 254/228/237 271/245/250
f 254/228/237 253/227/236 20/20/19
f 254/228/237 20/20/19 19/19/18
f 253/227/236 255/229/238 22/22/21
f 253/227/236 22/22/21 20/20/19
f 255/229/238 256/230/239 23/23/22
f 255/229/238 23/23/22 22/22/21
f 256/230/239 257/231/240 24/24/23
f 256/230/239 24/24/23 23/23/22
f 257/231/240 258/232/241 25/25/24
f 257/231/240 25/25/24 24/24/23
f 258/232/241 259/233/242 26/26/25
f 258/232/241 26/26/25 25/25/24
f 261/235/244 260/234/243 30/30/26
f 261/235/244 30/30/26 272/246/25
f 260/234/243 262/236/245 31/31/27
f 260/234/243 31/31/27 30/30/26
f 262/236/245 263/237/246 33/33/28
f 262/236/245 33/33/28 31/31/27
f 263/237/246 264/238/247 34/34/29
f 263/237/246 34/34/29 33/33/28
f 264/238/247 265/239/248 35/35/30
f 264/238/247 35/35/30 34/34/29
f 265/239/248 266/240/249 36/36/31
f 265/239/248 36/36/31 35/35/30
f 266/240/249 273/247/252 274/248/32
f 266/240/249 274/248/32 36/36/31
f 271/245/250 254/228/237 19/19/18
f 271/245/250 19/19/18 40/40/32
f 275/249/253 276/250/254 277/100/255
f 275/249/253 277/100/255 278/99/255
f 279/251/256 280/249/257 281/99/258
f 279/251/256 281/99/258 282/101/258
s 0
f 283/252/259 284/251/259 285/101/259
f 283/252/259 285/101/259 286/102/259
s 1
f 287/253/260 288/252/261 289/102/262
f 287/253/260 289/102/262 290/103/262
f 291/254/263 292/253/264 293/103/265
f 291/254/263 293/103/265 294/104/265
f 295/255/266 296/254/267 297/104/268
f 295/255/266 297/104/268 298/105/268
f 299/256/269 300/257/270 301/107/271
f 299/256/269 301/107/271 302/106/271
f 303/258/272 304/256/273 305/106/274
f 303/258/272 305/106/274 306/108/275
f 307/259/276 308/258/277 309/108/278
f 307/259/276 309/108/278 310/109/278
s 0
f 311/260/279 312/259/279 313/109/279
f 311/260/279 313/109/279 314/110/279
s 1
f 315/261/280 316/260/281 317/110/282
f 315/261/280 317/110/282 318/111/282
f 319/262/283 320/261/284 321/111/285
f 319/262/283 321/111/285 322/112/286
f 323/263/287 324/262/288 325/112/289
f 323/263/287 325/112/289 326/113/290
f 327/250/291 328/264/292 329/114/293
f 327/250/291 329/114/293 330/100/293
f 331/116/294 332/115/294 276/250/254
f 331/116/294 276/250/254 275/249/253
f 333/115/295 334/145/296 328/264/292
f 333/115/295 328/264/292 327/250/291
f 335/143/297 336/141/298 324/262/288
f 335/143/297 324/262/288 323/263/287
f 337/141/299 338/139/299 320/261/284
f 337/141/299 320/261/284 319/262/283
f 339/139/300 340/137/300 316/260/281
f 339/139/300 316/260/281 315/261/280
s 0
f 341/137/279 342/135/279 312/259/279
f 341/137/279 312/259/279 311/260/279
s 1
f 343/135/301 344/133/302 308/258/277
f 343/135/301 308/258/277 307/259/276
f 345/133/303 346/130/303 304/256/273
f 345/133/303 304/256/273 303/258/272
f 347/130/304 348/129/304 300/257/270
f 347/130/304 300/257/270 299/256/269
f 349/127/305 350/125/306 296/254/267
f 349/127/305 296/254/267 295/255/266
f 351/125/307 352/123/307 292/253/264
f 351/125/307 292/253/264 291/254/263
f 353/123/308 354/121/308 288/252/261
f 353/123/308 288/252/261 287/253/260
s 0
f 355/121/259 356/119/259 284/251/259
f 355/121/259 284/251/259 283/252/259
s 1
f 357/119/309 358/116/309 280/249/257
f 357/119/309 280/249/257 279/251/256
f 359/265/310 41/41/33 43/43/35
f 359/265/310 43/43/35 360/266/311
f 361/266/312 44/43/36 46/44/38
f 361/266/312 46/44/38 362/267/313
f 363/268/314 47/45/39 49/47/41
f 363/268/314 49/47/41 364/269/315
f 365/269/316 50/47/42 52/48/44
f 365/269/316 52/48/44 366/270/317
f 367/270/318 53/48/45 55/49/47
f 367/270/318 55/49/47 368/271/318
f 369/272/319 56/50/48 58/41/50
f 369/272/319 58/41/50 370/265/319
f 371/265/320 372/266/321 60/43/52
f 371/265/320 60/43/52 59/41/51
f 373/266/322 374/267/322 63/44/55
f 373/266/322 63/44/55 62/43/54
f 375/268/323 376/269/323 66/47/58
f 375/268/323 66/47/58 65/45/57
f 377/269/324 378/270/325 69/48/61
f 377/269/324 69/48/61 68/47/60
f 379/270/326 380/271/327 72/49/64
f 379/270/326 72/49/64 71/48/63
f 381/272/328 382/265/328 75/41/67
f 381/272/328 75/41/67 74/50/66
s 0
f 385/273/329 383/274/329 384/275/329
f 383/274/329 385/273/329 388/276/329
f 388/276/329 385/273/329 386/277/329
f 388/276/329 386/277/329 387/278/329
f 390/276/330 394/275/330 389/274/330
f 394/275/330 390/276/330 393/273/330
f 393/273/330 390/276/330 391/278/330
f 393/273/330 391/278/330 392/277/330
